<?xml version="1.0" encoding="utf-8"?>
<!-- Generator: Adobe Illustrator 26.0.0, SVG Export Plug-In . SVG Version: 6.00 Build 0)  -->
<svg version="1.1" id="Layer_1" xmlns="http://www.w3.org/2000/svg" xmlns:xlink="http://www.w3.org/1999/xlink" x="0px" y="0px"
	 viewBox="0 0 225 225" style="enable-background:new 0 0 225 225;" xml:space="preserve">
<style type="text/css">
	.st0{fill:#020202;}
</style>
<path class="st0" d="M91.7,158.5H77.2l-16.9-44.2l-16.4,44.2H29.5L0,79.6h19.8l9.8,27l7.1,25.5l17.7-52.5H66l18.5,52.5l27.9-90.9
	h21.9L91.7,158.5z"/>
<path class="st0" d="M149.6,102.9h15.2v55.8h-14.7l-0.9-7c-1.7,2.7-4.2,4.7-7.5,6.1c-3.3,1.4-6.5,2.1-9.7,2.1
	c-8.5,0.1-15.4-2.5-20.8-7.7s-8-12.4-8-21.4c0-9,2.8-16.2,8.3-21.5c5.5-5.3,12.5-7.8,21-7.7c3.6,0,6.9,0.7,9.9,2
	c3,1.4,5.2,3.2,6.6,5.6L149.6,102.9z M123.8,120c-2.8,2.7-4.2,6.3-4.2,10.8c0,4.5,1.4,8.1,4.2,10.7c2.8,2.6,6.3,4,10.5,4
	c4.4,0,7.9-1.4,10.7-4.3c2.7-2.9,4.1-6.1,4.1-9.8c0-4.3-1.3-7.9-3.9-10.9c-2.6-3-6.2-4.5-10.9-4.5C130,116,126.5,117.3,123.8,120z"
	/>
<path class="st0" d="M225,102.9l-34.2,80.9H173l11.5-26.8l-23.4-54.1h18.3l13.9,35.1l13.7-35.1H225z"/>
</svg>
