<?xml version="1.0" encoding="utf-8"?>
<!-- Generator: Adobe Illustrator 26.0.0, SVG Export Plug-In . SVG Version: 6.00 Build 0)  -->
<svg version="1.1" id="Layer_1" xmlns="http://www.w3.org/2000/svg" xmlns:xlink="http://www.w3.org/1999/xlink" x="0px" y="0px"
	 viewBox="0 0 225 225" style="enable-background:new 0 0 225 225;" xml:space="preserve">
<style type="text/css">
	.st0{fill:#FFFFFF;}
</style>
<path class="st0" d="M91.7,157H77.2l-16.9-44.2L43.9,157H29.5L0,78h19.8l9.8,27l7.1,25.5L54.4,78H66l18.5,52.5l27.9-90.9h21.9
	L91.7,157z"/>
<path class="st0" d="M149.6,101.3h15.2v55.8h-14.7l-0.9-7c-1.7,2.7-4.2,4.7-7.5,6.1c-3.3,1.4-6.5,2.1-9.7,2.1
	c-8.5,0.1-15.4-2.5-20.8-7.7s-8-12.4-8-21.4s2.8-16.2,8.3-21.5c5.5-5.3,12.5-7.8,21-7.7c3.6,0,6.9,0.7,9.9,2c3,1.4,5.2,3.2,6.6,5.6
	L149.6,101.3z M123.8,118.4c-2.8,2.7-4.2,6.3-4.2,10.8c0,4.5,1.4,8.1,4.2,10.7c2.8,2.6,6.3,4,10.5,4c4.4,0,7.9-1.4,10.7-4.3
	c2.7-2.9,4.1-6.1,4.1-9.8c0-4.3-1.3-7.9-3.9-10.9c-2.6-3-6.2-4.5-10.9-4.5C130,114.4,126.5,115.7,123.8,118.4z"/>
<path class="st0" d="M225,101.3l-34.2,80.9H173l11.5-26.8l-23.4-54.1h18.3l13.9,35.1l13.7-35.1H225z"/>
</svg>
